<mxfile host="app.diagrams.net" modified="2024-01-17T17:52:43.173Z" agent="Mozilla/5.0 (Macintosh; Intel Mac OS X 10_15_7) AppleWebKit/537.36 (KHTML, like Gecko) Chrome/120.0.0.0 Safari/537.36" version="22.1.18" etag="NBrWCbeCz_X3Nji0Y7df" type="github">
  <diagram name="Page-1" id="ySJEThZpHmlCTh4Yo9gr">
    <mxGraphModel>
      <root>
        <mxCell id="0" />
        <mxCell id="1" parent="0" />
      </root>
    </mxGraphModel>
  </diagram>
</mxfile>
